<!DOCTYPE svg PUBLIC "-//W3C//DTD SVG 1.1//EN" "http://www.w3.org/Graphics/SVG/1.1/DTD/svg11.dtd">
<!-- Uploaded to: SVG Repo, www.svgrepo.com, Transformed by: SVG Repo Mixer Tools -->
<svg fill="#21739D" height="64px" width="64px" version="1.1" id="Layer_1" xmlns="http://www.w3.org/2000/svg" xmlns:xlink="http://www.w3.org/1999/xlink" viewBox="0 0 512.001 512.001" xml:space="preserve">
<g id="SVGRepo_bgCarrier" stroke-width="0"/>
<g id="SVGRepo_tracerCarrier" stroke-linecap="round" stroke-linejoin="round"/>
<g id="SVGRepo_iconCarrier"> <g> <g> <path d="M341.749,60.376c-1.773-4.058-6.501-5.912-10.556-4.136c-4.058,1.772-5.909,6.498-4.137,10.556 c4.277,9.787,6.445,20.216,6.445,30.997c0,42.734-34.766,77.5-77.5,77.5c-42.734,0-77.5-34.766-77.5-77.5 c0-42.734,34.766-77.5,77.5-77.5c20.413,0,39.68,7.869,54.253,22.158c3.162,3.099,8.237,3.051,11.337-0.111 c3.1-3.162,3.051-8.239-0.111-11.339C303.891,13.756,280.637,4.258,256,4.258c-51.576,0-93.535,41.959-93.535,93.535 s41.96,93.535,93.535,93.535c51.576,0,93.535-41.959,93.535-93.535C349.535,84.789,346.915,72.2,341.749,60.376z"/> </g> </g> <g> <g> <path d="M309.222,57.397c-8.125-8.124-21.349-8.124-29.478,0l-36.57,36.571l-10.916-10.916 c-8.127-8.127-21.352-8.126-29.479,0.001c-8.126,8.127-8.126,21.352,0,29.479l25.655,25.655c8.036,8.034,21.442,8.033,29.479,0 l51.31-51.312C317.349,78.749,317.349,65.525,309.222,57.397z M297.885,75.539l-51.309,51.31c-1.854,1.854-4.95,1.855-6.804,0 l-25.655-25.654c-1.876-1.876-1.876-4.928-0.001-6.803c1.85-1.849,4.954-1.85,6.804,0l16.585,16.585 c3.131,3.13,8.208,3.13,11.337,0l42.239-42.24c1.875-1.875,4.927-1.875,6.803-0.001C299.761,70.612,299.761,73.664,297.885,75.539 z"/> </g> </g> <g> <g> <path d="M511.28,325.331l-51.31-111.173c-1.311-2.839-4.152-4.657-7.28-4.657H59.31c-3.127,0-5.969,1.818-7.28,4.657L0.72,325.331 c-2.412,5.225,1.54,11.377,7.28,11.377h43.293v163.017c0,4.429,3.59,8.017,8.017,8.017h393.38c4.428,0,8.017-3.589,8.017-8.017 V336.708h43.293C509.74,336.707,513.692,330.556,511.28,325.331z M342.052,491.707H67.328v-155h120.259 c4.428,0,8.017-3.589,8.017-8.017c0-4.429-3.59-8.017-8.017-8.017H20.53l43.91-95.138h273.099l-43.91,95.138h-71.836 c-4.428,0-8.017,3.589-8.017,8.017c0,4.429,3.59,8.017,8.017,8.017h76.966c3.127,0,5.969-1.818,7.28-4.657l36.013-78.03V491.707z M444.673,491.707h-86.586V254.019l36.013,78.03c1.311,2.839,4.152,4.657,7.28,4.657h43.293V491.707z M406.51,320.672 l-43.91-95.138h84.96l43.91,95.138H406.51z"/> </g> </g> <g> <g> <path d="M93.517,431.845c-4.428,0-8.017,3.589-8.017,8.017v25.655c0,4.429,3.59,8.017,8.017,8.017s8.017-3.589,8.017-8.017 v-25.655C101.535,435.434,97.945,431.845,93.517,431.845z"/> </g> </g> <g> <g> <path d="M119.173,431.845c-4.428,0-8.017,3.589-8.017,8.017v25.655c0,4.429,3.59,8.017,8.017,8.017s8.017-3.589,8.017-8.017 v-25.655C127.19,435.434,123.6,431.845,119.173,431.845z"/> </g> </g> <g> <g> <path d="M161.931,431.845c-4.428,0-8.017,3.589-8.017,8.017v25.655c0,4.429,3.59,8.017,8.017,8.017s8.017-3.589,8.017-8.017 v-25.655C169.948,435.434,166.359,431.845,161.931,431.845z"/> </g> </g> <g> <g> <path d="M187.586,431.845c-4.428,0-8.017,3.589-8.017,8.017v25.655c0,4.429,3.59,8.017,8.017,8.017s8.017-3.589,8.017-8.017 v-25.655C195.604,435.434,192.014,431.845,187.586,431.845z"/> </g> </g> <g> <g> <path d="M213.242,431.845c-4.428,0-8.017,3.589-8.017,8.017v25.655c0,4.429,3.59,8.017,8.017,8.017s8.017-3.589,8.017-8.017 v-25.655C221.259,435.434,217.669,431.845,213.242,431.845z"/> </g> </g> <g> <g> <path d="M247.449,431.845c-4.428,0-8.017,3.589-8.017,8.017v25.655c0,4.429,3.59,8.017,8.017,8.017 c4.428,0,8.017-3.589,8.017-8.017v-25.655C255.466,435.434,251.876,431.845,247.449,431.845z"/> </g> </g> <g> <g> <path d="M273.104,431.845c-4.428,0-8.017,3.589-8.017,8.017v25.655c0,4.429,3.59,8.017,8.017,8.017 c4.428,0,8.017-3.589,8.017-8.017v-25.655C281.121,435.434,277.531,431.845,273.104,431.845z"/> </g> </g> <g> <g> <path d="M315.862,431.845c-4.428,0-8.017,3.589-8.017,8.017v25.655c0,4.429,3.59,8.017,8.017,8.017s8.017-3.589,8.017-8.017 v-25.655C323.88,435.434,320.29,431.845,315.862,431.845z"/> </g> </g> <g> <g> <path d="M427.035,431.845h-51.31c-4.428,0-8.017,3.589-8.017,8.017v25.655c0,4.429,3.59,8.017,8.017,8.017h51.31 c4.428,0,8.017-3.589,8.017-8.017v-25.655C435.052,435.434,431.463,431.845,427.035,431.845z M419.018,457.5h-35.276v-9.621 h35.276V457.5z"/> </g> </g> <g> <g> <path d="M315.862,354.879H93.517c-4.428,0-8.017,3.589-8.017,8.017v34.207c0,4.429,3.59,8.017,8.017,8.017h222.345 c4.428,0,8.017-3.589,8.017-8.017v-34.207C323.88,358.469,320.29,354.879,315.862,354.879z M307.845,389.086H101.535v-18.172 h206.311V389.086z"/> </g> </g> <g> <g> <path d="M432.704,382.882l-25.655-25.655c-3.13-3.129-8.206-3.129-11.337,0.001l-25.655,25.655c-3.131,3.132-3.131,8.208,0,11.339 c3.131,3.13,8.208,3.13,11.337,0l11.969-11.969v23.403c0,4.429,3.59,8.017,8.017,8.017s8.017-3.589,8.017-8.017v-23.403 l11.969,11.969c3.26,3.259,8.767,3.041,11.764-0.461C435.818,390.622,435.623,385.801,432.704,382.882z"/> </g> </g> </g>
</svg>